#!OML:ASF \\sashay\E\Suitcase\Project 1\Capture day 1\Session 1\Male1.ASF
:FULLY-SPECIFIED
:DEGREES
401
root 0.212248 17.2924 -27.1752 6.78122 4.67833 -1.53466
lowerback 7.74607 2.40954 0.798942
upperback 0.899039 3.38115 2.84656
thorax -3.53598 1.68687 2.13444
lowerneck -20.0222 -1.34243 -0.951488
upperneck 5.84304 -0.860035 -6.02354
head 4.94695 -0.887154 -1.84155
rclavicle 3.16068e-014 1.11319e-014
rhumerus -42.9854 -39.5286 -53.2197
rradius 9.42867
rwrist 1.97187
rhand -23.3347 20.4514
rfingers 7.12502
rthumb 3.11984 -9.50556
lclavicle 3.16068e-014 1.11319e-014
lhumerus -40.9006 10.303 81.0749
lradius 24.962
lwrist -10.3878
lhand -2.14426 40.3192
lfingers 7.12502
lthumb 23.535 68.8993
rfemur 11.1954 0.0698483 26.6296
rtibia 18.7819
rfoot -11.511 -18.5159
rtoes 0.319727
lfemur -31.2586 -0.550167 -21.565
ltibia 23.8266
lfoot -8.50509 -7.06061
ltoes 5.19425
402
root 0.24269 17.3075 -27.0555 6.6874 4.93199 -1.49487
lowerback 7.63067 2.33906 0.720184
upperback 0.967558 3.2746 2.81016
thorax -3.39904 1.63484 2.15854
lowerneck -20.2479 -1.27372 -0.581469
upperneck 5.75665 -0.863872 -5.99732
head 4.95186 -0.879157 -1.89462
rclavicle -3.79679e-014 -1.82882e-014
rhumerus -42.2709 -39.7425 -53.5816
rradius 9.12205
rwrist 2.10512
rhand -23.8868 21.1178
rfingers 7.12502
rthumb 2.58667 -8.84629
lclavicle -3.79679e-014 -1.82882e-014
lhumerus -40.4126 10.9195 80.786
lradius 24.3992
lwrist -11.5045
lhand -1.99533 41.2719
lfingers 7.12502
lthumb 23.6779 69.8336
rfemur 10.117 -0.644261 26.4478
rtibia 21.4794
rfoot -10.5574 -18.7577
rtoes 0.840293
lfemur -30.6867 0.167602 -21.866
ltibia 23.7086
lfoot -8.58215 -8.35753
ltoes 5.52805
403
root 0.267832 17.3271 -26.9215 6.3195 4.77316 -1.28794
lowerback 7.31152 2.46189 -0.00357066
upperback 1.19158 3.37242 2.93868
thorax -3.04198 1.69221 2.70517
lowerneck -20.2049 -1.45642 -1.4269
upperneck 5.76445 -0.956408 -5.41479
head 4.94935 -0.902116 -1.58352
rclavicle 2.52457e-014 -1.19271e-014
rhumerus -42.0008 -39.6054 -53.3321
rradius 9.32837
rwrist 2.00365
rhand -23.6694 21.4277
rfingers 7.12502
rthumb 2.79665 -8.53373
lclavicle 2.52457e-014 -1.19271e-014
lhumerus -40.2911 10.9522 81.078
lradius 24.4468
lwrist -11.9376
lhand -1.37882 41.1546
lfingers 7.12502
lthumb 24.2691 69.6386
rfemur 9.2456 -1.19323 25.9514
rtibia 24.3569
rfoot -9.14625 -18.7079
rtoes 3.80469
lfemur -29.4991 0.413871 -22.0658
ltibia 23.4535
lfoot -9.12961 -8.98866
ltoes 8.92327
404
root 0.300449 17.348 -26.8026 6.07389 5.12441 -1.12143
lowerback 7.73865 2.41857 0.196926
upperback 0.733282 3.33034 2.42676
thorax -3.71068 1.66823 2.03869
lowerneck -19.6042 -1.48667 -0.377607
upperneck 6.36332 -1.25979 -5.35963
head 5.03059 -1.0237 -1.76091
rclavicle -5.22804e-014 -3.18055e-015
rhumerus -43.3101 -39.6433 -53.0751
rradius 9.95534
rwrist 1.6013
rhand -23.5898 20.3747
rfingers 7.12502
rthumb 2.87354 -9.58568
lclavicle -5.22804e-014 -3.18055e-015
lhumerus -40.8431 9.60077 80.7103
lradius 24.5358
lwrist -11.7319
lhand -1.50783 41.8184
lfingers 7.12502
lthumb 24.1454 70.3189
rfemur 8.11582 -2.1365 25.5361
rtibia 27.297
rfoot -7.87331 -18.4738
rtoes 6.9072
lfemur -28.4961 0.872268 -22.4479
ltibia 22.9884
lfoot -9.38176 -9.94926
ltoes 8.8772
405
root 0.323762 17.3676 -26.6772 5.89362 5.06373 -0.596081
lowerback 7.6017 2.32834 -0.658543
upperback 0.995026 3.12914 2.36625
thorax -3.39769 1.57805 2.48898
lowerneck -20.4005 -1.46593 -0.329773
upperneck 6.5066 -1.22823 -5.29237
head 5.19973 -1.01469 -1.75635
rclavicle 8.94531e-015 -6.36111e-015
rhumerus -42.2042 -39.4875 -53.7618
rradius 9.96952
rwrist 1.63997
rhand -23.2127 22.3045
rfingers 7.12502
rthumb 3.23772 -7.65069
lclavicle 8.94531e-015 -6.36111e-015
lhumerus -40.4927 10.0772 80.6637
lradius 24.6265
lwrist -11.6813
lhand -1.74985 41.2254
lfingers 7.12502
lthumb 23.9133 69.7565
rfemur 6.88844 -2.62643 24.7087
rtibia 30.3
rfoot -7.05771 -18.4859
rtoes 9.73566
lfemur -27.4472 1.29084 -23.0825
ltibia 22.4799
lfoot -10.02 -10.6156
ltoes 8.6158
406
root 0.350677 17.3821 -26.5549 5.46676 5.0673 -0.318917
lowerback 7.55241 2.39285 -1.40612
upperback 1.10388 3.15838 2.52588
thorax -3.30849 1.60212 3.07583
lowerneck -19.8522 -1.65225 -0.843771
upperneck 6.51802 -1.37915 -5.10957
head 5.11903 -1.08224 -1.62387
rclavicle -6.36111e-015 -6.36111e-015
rhumerus -42.0356 -39.2519 -53.4384
rradius 10.2881
rwrist 1.55774
rhand -23.1743 22.1927
rfingers 7.12502
rthumb 3.27481 -7.7619
lclavicle -6.36111e-015 -6.36111e-015
lhumerus -40.3106 9.94555 81.1864
lradius 24.5505
lwrist -12.1753
lhand -1.36144 42.4941
lfingers 7.12502
lthumb 24.2857 70.9758
rfemur 5.82943 -3.20117 24.1256
rtibia 33.239
rfoot -5.21589 -19.0402
rtoes 13.9217
lfemur -26.2577 2.19385 -23.5816
ltibia 21.9111
lfoot -9.991 -12.0614
ltoes 12.2081
407
root 0.378442 17.3974 -26.4443 5.37918 4.8877 0.0610486
lowerback 7.62539 2.84863 -2.30623
upperback 0.686093 3.69429 2.46832
thorax -3.87192 1.89288 3.44867
lowerneck -18.8847 -2.09556 -0.899155
upperneck 6.78463 -2.00653 -4.82045
head 5.03934 -1.36239 -1.57265
rclavicle 1.00386e-014 -7.95139e-015
rhumerus -42.471 -37.6228 -54.0078
rradius 11.1709
rwrist -0.891591
rhand -23.3497 22.6776
rfingers 7.12502
rthumb 3.10537 -7.27956
lclavicle 1.00386e-014 -7.95139e-015
lhumerus -40.951 8.79983 81.617
lradius 24.7854
lwrist -12.1881
lhand -1.39221 41.6055
lfingers 7.12502
lthumb 24.2562 70.0912
rfemur 4.42475 -3.75789 23.3801
rtibia 36.1801
rfoot -3.62499 -18.4619
rtoes 18.2332
lfemur -25.2463 2.41755 -23.9744
ltibia 21.203
lfoot -9.94417 -12.1657
ltoes 9.9909
